<?xml version="1.0" encoding="UTF-8"?>
<svg id="Layer_2" xmlns="http://www.w3.org/2000/svg" viewBox="0 0 2091.06 586.47">
  <defs>
    <style>
      .cls-1 {
        letter-spacing: 0em;
      }

      .cls-2 {
        letter-spacing: 0em;
      }

      .cls-3 {
        letter-spacing: -.02em;
      }

      .cls-4 {
        letter-spacing: 0em;
      }

      .cls-5 {
        letter-spacing: 0em;
      }

      .cls-6 {
        letter-spacing: 0em;
      }

      .cls-7 {
        fill: #34b666;
      }

      .cls-8 {
        fill: #2a6db6;
      }

      .cls-9 {
        letter-spacing: 0em;
      }

      .cls-10 {
        fill: #231f20;
        font-family: Britanica-Black, Britanica-Black;
        font-size: 300px;
        font-weight: 800;
      }
    </style>
  </defs>
  <g id="Layer_1-2" data-name="Layer_1">
    <g>
      <g>
        <path class="cls-8" d="M543.62,446.08c27.93-45.56,42.85-98.06,42.85-152.84s-14.92-107.29-42.85-152.85c-30.06,16.1-54.85,40.8-71.04,70.79,11.48,25,17.89,52.79,17.89,82.06s-6.41,57.05-17.89,82.05c16.19,30,40.98,54.7,71.04,70.79Z"/>
        <path class="cls-8" d="M388.16,120.39c-4.77,6.5-9.25,13.17-13.43,20,30.06,16.09,54.84,40.8,71.04,70.79,3.9-8.49,8.39-16.66,13.41-24.46,17.76-27.57,42.19-50.45,71.01-66.33,7.1-3.92,14.47-7.41,22.07-10.44-10.29-14.49-21.88-28.21-34.7-41.03-11.43-11.43-23.59-21.89-36.36-31.32-7.52,4.25-14.87,8.84-22.02,13.77-14.68,10.12-28.54,21.65-41.42,34.52-10.83,10.83-20.72,22.37-29.6,34.5Z"/>
        <path class="cls-8" d="M366.1,476.53c-4.77-6.7-9.26-13.56-13.45-20.56-18.54,6.79-38.55,10.5-59.41,10.5-95.52,0-173.24-77.71-173.24-173.23s77.72-173.24,173.24-173.24c20.86,0,40.87,3.71,59.41,10.5,4.2-7.01,8.68-13.87,13.45-20.56,10.29-14.48,21.87-28.2,34.69-41.02,11.43-11.43,23.59-21.89,36.36-31.32C393.72,13.06,344.48,0,293.24,0c-78.33,0-151.97,30.51-207.35,85.89C30.5,141.27,0,214.91,0,293.24s30.5,151.96,85.89,207.35c55.38,55.38,129.02,85.88,207.35,85.88,51.24,0,100.48-13.06,143.91-37.6-12.77-9.43-24.93-19.88-36.36-31.31-12.82-12.82-24.41-26.54-34.69-41.03Z"/>
        <path class="cls-8" d="M459.18,399.75c-5.03-7.8-9.51-15.97-13.41-24.46-16.19,30-40.98,54.7-71.04,70.79,4.18,6.83,8.66,13.5,13.43,20,8.88,12.13,18.76,23.67,29.6,34.51,12.88,12.87,26.74,24.4,41.42,34.52,7.15,4.93,14.5,9.52,22.02,13.76,12.77-9.43,24.93-19.88,36.36-31.31,12.82-12.82,24.41-26.55,34.7-41.04-7.6-3.03-14.97-6.52-22.07-10.44-28.82-15.88-53.25-38.76-71.01-66.33Z"/>
      </g>
      <path class="cls-7" d="M832.46,85.89C777.07,30.51,703.44,0,625.11,0c-51.25,0-100.48,13.06-143.91,37.6-7.52,4.25-14.87,8.84-22.02,13.77-14.68,10.12-28.54,21.65-41.42,34.52-10.83,10.83-20.72,22.37-29.6,34.5-4.77,6.5-9.25,13.17-13.43,20-27.93,45.56-42.85,98.06-42.85,152.85s14.92,107.28,42.85,152.84c4.18,6.83,8.66,13.5,13.43,20,8.88,12.13,18.76,23.67,29.6,34.51,12.88,12.87,26.74,24.4,41.42,34.52,7.15,4.93,14.5,9.52,22.02,13.76,43.43,24.54,92.66,37.6,143.91,37.6,78.33,0,151.96-30.5,207.35-85.88,55.38-55.39,85.88-129.03,85.88-207.35s-30.5-151.97-85.88-207.35ZM625.11,490.47c-25.72,0-50.3-4.95-72.85-13.95-7.6-3.03-14.97-6.52-22.07-10.44-28.82-15.88-53.25-38.76-71.01-66.33-5.03-7.8-9.51-15.97-13.41-24.46-11.48-25-17.89-52.79-17.89-82.05s6.41-57.06,17.89-82.06c3.9-8.49,8.39-16.66,13.41-24.46,17.76-27.57,42.19-50.45,71.01-66.33,7.1-3.92,14.47-7.41,22.07-10.44,22.55-9,47.13-13.95,72.85-13.95,108.76,0,197.23,88.48,197.23,197.24s-88.47,197.23-197.23,197.23Z"/>
    </g>
    <text class="cls-10" transform="translate(1004.48 248.41)"><tspan class="cls-6" x="0" y="0">C</tspan><tspan x="202.5" y="0">i</tspan><tspan class="cls-4" x="270.9" y="0">t</tspan><tspan x="366.9" y="0">i</tspan><tspan class="cls-3" x="435.3" y="0">z</tspan><tspan x="570.3" y="0">en</tspan><tspan class="cls-2" x="0" y="280">C</tspan><tspan class="cls-9" x="202.8" y="280">onn</tspan><tspan class="cls-5" x="682.19" y="280">e</tspan><tspan class="cls-1" x="835.78" y="280">c</tspan><tspan x="990.28" y="280">t</tspan></text>
  </g>
</svg>